<?xml version="1.0" encoding="UTF-8" standalone="no"?>
<svg
   xmlns:dc="http://purl.org/dc/elements/1.1/"
   xmlns:cc="http://creativecommons.org/ns#"
   xmlns:rdf="http://www.w3.org/1999/02/22-rdf-syntax-ns#"
   xmlns:svg="http://www.w3.org/2000/svg"
   xmlns="http://www.w3.org/2000/svg"
   xmlns:sodipodi="http://sodipodi.sourceforge.net/DTD/sodipodi-0.dtd"
   xmlns:inkscape="http://www.inkscape.org/namespaces/inkscape"
   id="svg15"
   preserveAspectRatio="xMidYMid meet"
   version="1.1"
   viewBox="0 0 482.70001 44.099998"
   height="44.099998mm"
   width="482.70001mm"
   sodipodi:docname="logo.svg"
   inkscape:version="1.0.2 (e86c870879, 2021-01-15)">
  <sodipodi:namedview
     pagecolor="#ffffff"
     bordercolor="#666666"
     borderopacity="1"
     objecttolerance="10"
     gridtolerance="10"
     guidetolerance="10"
     inkscape:pageopacity="0"
     inkscape:pageshadow="2"
     inkscape:window-width="1920"
     inkscape:window-height="912"
     id="namedview6"
     showgrid="false"
     inkscape:zoom="0.73011185"
     inkscape:cx="710.78689"
     inkscape:cy="112.42182"
     inkscape:window-x="0"
     inkscape:window-y="0"
     inkscape:window-maximized="1"
     inkscape:current-layer="svg15" />
  <metadata
     id="metadata21">
    <rdf:RDF>
      <cc:Work
         rdf:about="">
        <dc:format>image/svg+xml</dc:format>
        <dc:type
           rdf:resource="http://purl.org/dc/dcmitype/StillImage" />
        <dc:title />
      </cc:Work>
    </rdf:RDF>
  </metadata>
  <defs
     id="defs19" />
  <rect
     style="fill:#ffffff;stroke-width:0;stroke-dashoffset:5"
     id="rect831"
     width="482"
     height="44"
     x="0.3500044"
     y="0.049999081" />
  <path
     id="path4-6"
     style="display:inline;fill:#000000;fill-opacity:1;stroke:none;stroke-width:0.595632;stroke-miterlimit:3.55905;stroke-dasharray:none;stroke-opacity:1"
     d="m 452.66497,4.5643091 c -0.16994,0.49979 -0.6404,1.88997 -1.04717,3.08488 -0.93172,2.7387299 -1.64197,4.8446599 -3.20197,9.4645399 -0.41883,1.24512 -0.78914,2.33654 -0.81945,2.42521 -0.10064,0.29047 -1.45075,4.30054 -1.46895,4.36263 -0.012,0.0353 -0.0181,0.0735 -0.0241,0.0858 -0.006,0.0118 0.51283,0.0235 1.15335,0.0235 1.10172,0 1.16246,0.003 1.14721,0.0529 -0.0241,0.0858 -3.25054,11.63262 -3.50551,12.54941 -0.13318,0.47921 -0.42183,1.51736 -0.64034,2.30703 -0.21875,0.7902 -0.40376,1.45221 -0.40979,1.46997 -0.006,0.0235 -0.005,0.0353 0.0121,0.0353 0.0121,-0.003 0.20007,-0.41688 0.42183,-0.92626 0.22116,-0.50861 0.62824,-1.44339 0.90749,-2.07624 0.2766,-0.63579 0.71923,-1.64742 0.98342,-2.24788 0.26395,-0.60415 0.70109,-1.60009 0.97118,-2.21824 0.26998,-0.61885 0.88616,-2.02309 1.36579,-3.12033 0.47968,-1.09777 1.09267,-2.49924 1.3627,-3.11445 0.27058,-0.61227 0.7073,-1.61785 0.97734,-2.23306 0.26997,-0.61221 0.59478,-1.35755 0.72537,-1.65624 l 0.23623,-0.53801 h -1.33234 c -0.73146,0 -1.33245,-0.006 -1.33245,-0.0176 0,-0.0118 0.0361,-0.18581 0.0789,-0.39337 0.0422,-0.20461 0.21212,-1.02668 0.37664,-1.82193 0.16692,-0.79884 0.42485,-2.04973 0.57671,-2.78013 0.15186,-0.73427 0.39773,-1.91672 0.54597,-2.63242 0.14885,-0.71587 0.51585,-2.49336 0.81945,-3.94845 0.30071,-1.4552099 0.67066,-3.2327499 0.81938,-3.9485099 0.14885,-0.71588 0.35193,-1.70064 0.45257,-2.18573 0.10305,-0.48744 0.17898,-0.89068 0.17295,-0.89556 -0.006,-0.006 -0.15186,0.39689 -0.3218,0.89921 z M 4.4110507e-6,-9.1756489e-7 V 44.099999 H 482.7 V -9.1756489e-7 Z M 223.44894,3.8208591 H 478.77525 V 40.275319 H 200.72251 v -18.22726 h 22.72643 z m -197.125095,3.60824 h 7.49885 V 25.067549 c 0,1.25594 0.23623,2.20296 0.70543,2.84104 0.48029,0.63797 1.18343,0.95713 2.11243,0.95713 h 3.36751 v 2.37006 h -3.64809 c -1.72242,0 -3.0606,-0.53684 -4.01051,-1.61044 -0.93955,-1.07361 -1.407,-2.59285 -1.407,-4.55779 V 9.6167691 h -4.61862 z m 25.28716,0.16699 h 2.88029 v 3.5397999 h -2.88029 z m 33.1328,0 h 2.88029 v 9.1762499 c 0.51163,-0.97235 1.2044,-1.70663 2.08128,-2.20289 0.87687,-0.50626 1.9176,-0.75968 3.11802,-0.75968 1.78509,0 3.11429,0.5727 3.99111,1.71674 0.8873,1.13441 1.33293,2.85621 1.33293,5.16547 v 10.54362 h -2.89589 v -10.54362 c 0,-1.52935 -0.27721,-2.65364 -0.83018,-3.37275 -0.5532,-0.71882 -1.42001,-1.07866 -2.59965,-1.07866 -1.34655,0 -2.38728,0.46568 -3.11796,1.3977 -0.72025,0.92167 -1.07966,2.24847 -1.07966,3.98044 v 9.61689 h -2.88029 z m 63.323125,0 h 2.88023 v 3.5397999 h -2.88023 z m 24.2231,0 h 2.88029 V 31.235599 h -2.88029 v -2.14222 c -0.48029,0.84071 -1.12154,1.48379 -1.92537,1.92949 -0.79329,0.43569 -1.71561,0.65343 -2.75941,0.65343 -2.11912,0 -3.78705,-0.79508 -5.00839,-2.38523 -1.21084,-1.60033 -1.81624,-3.80317 -1.81624,-6.60875 0,-2.76501 0.61046,-4.93251 1.83185,-6.50238 1.2214,-1.58003 2.88409,-2.37005 4.99278,-2.37005 1.05429,0 1.98679,0.22284 2.79062,0.66813 0.80372,0.43569 1.43485,1.07366 1.89416,1.91425 z m 63.44782,0 v 3.5397999 h 2.88023 V 7.5960891 Z m -27.43858,1.59139 h 7.57291 v 7.3493699 h -7.57291 z m -100.58341,0.20109 h 2.88029 v 4.8311399 h 6.54393 v 2.17256 h -6.54393 v 9.23704 c 0,1.25589 0.24648,2.13199 0.73665,2.62825 0.49053,0.49626 1.34318,0.74451 2.56451,0.74451 h 3.24277 v 2.23329 h -3.52341 c -2.16082,0 -3.68443,-0.42041 -4.57179,-1.26099 -0.8873,-0.84071 -1.32902,-2.28904 -1.32902,-4.34506 v -9.23704 h -4.68484 v -2.17256 h 4.68484 z m 184.12685,0 v 4.8311399 h -4.68484 v 2.17256 h 4.68484 v 9.23704 c 0,2.05602 0.44172,3.50435 1.32902,4.34506 0.8873,0.84064 2.41097,1.26099 4.57179,1.26099 h 3.52341 v -2.23329 h -3.23891 c -1.22133,0 -2.07784,-0.24813 -2.56843,-0.74451 -0.49054,-0.49626 -0.73665,-1.37236 -0.73665,-2.62825 v -9.23704 h 6.54399 v -2.17256 H 294.723 V 9.3885691 Z m 115.74459,0 v 4.8311399 h -4.68092 v 2.17256 h 4.68092 v 9.23704 c 0,2.05602 0.44172,3.50435 1.32908,4.34506 0.88724,0.84064 2.41097,1.26099 4.57173,1.26099 h 3.52335 v -2.23329 h -3.23873 c -1.22145,0 -2.0779,-0.24813 -2.56855,-0.74451 -0.49054,-0.49626 -0.73665,-1.37236 -0.73665,-2.62825 v -9.23704 h 6.54393 v -2.17256 h -6.54387 V 9.3885691 Z M 71.059655,13.809529 c 1.12738,0 2.08176,0.21756 2.86468,0.65337 0.78287,0.4357 1.41912,1.10907 1.90977,2.02056 v -2.20289 h 2.88023 v 15.86096 c 0,2.55234 -0.62076,4.48687 -1.86294,5.8035 -1.24225,1.31673 -3.06861,1.97505 -5.47995,1.97505 -0.79335,0 -1.62412,-0.0735 -2.49057,-0.21227 -0.86639,-0.1417 -1.73314,-0.34926 -2.59959,-0.62256 v -2.76501 c 1.02301,0.46627 1.95159,0.81025 2.7867,1.03309 0.83512,0.22285 1.60406,0.33457 2.30346,0.33457 1.55537,0 2.68878,-0.40983 3.39867,-1.2306 0.70983,-0.82036 1.06399,-2.12187 1.06399,-3.90441 v -0.12113 -1.89902 c -0.4592,0.95207 -1.08526,1.66106 -1.87861,2.12693 -0.79335,0.46627 -1.75803,0.69899 -2.89584,0.69899 -2.04602,0 -3.68178,-0.79501 -4.90311,-2.38517 -1.22134,-1.59027 -1.83185,-3.71708 -1.83185,-6.3809 0,-2.67387 0.61051,-4.80591 1.83185,-6.39601 1.22133,-1.59021 2.85709,-2.38528 4.90311,-2.38528 z m 59.187815,0 c 0.93948,0 1.84233,0.0858 2.70872,0.25813 0.86645,0.16228 1.71777,0.40983 2.55289,0.74451 v 2.73461 c -0.82469,-0.46627 -1.6554,-0.8153 -2.49052,-1.04826 -0.83511,-0.23285 -1.68637,-0.34927 -2.55282,-0.34927 -1.30492,0 -2.2799,0.20697 -2.92706,0.62256 -0.63679,0.40513 -0.95491,1.02798 -0.95491,1.86869 0,0.75956 0.23743,1.32679 0.71712,1.70151 0.48029,0.37455 1.67541,0.73934 3.58572,1.0939 l 1.16143,0.21226 c 1.43014,0.26283 2.50811,0.79002 3.23891,1.58004 0.74111,0.79002 1.11467,1.81806 1.11467,3.08405 0,1.68129 -0.6157,2.99797 -1.84746,3.9501 -1.23176,0.94184 -2.94477,1.41282 -5.13693,1.41282 -0.86638,0 -1.77442,-0.0911 -2.72439,-0.27342 -0.94985,-0.17169 -1.98033,-0.43569 -3.08681,-0.78996 v -2.88655 c 1.0752,0.53684 2.10562,0.9419 3.08681,1.21538 0.98131,0.26283 1.90989,0.39453 2.78677,0.39571 1.27352,0 2.2588,-0.24813 2.95821,-0.74445 0.6994,-0.50626 1.04844,-1.21037 1.04844,-2.11176 0,-1.29645 -1.27762,-2.19284 -3.83515,-2.6891 l -0.12474,-0.0294 -1.0796,-0.21226 c -1.65974,-0.31399 -2.87041,-0.84059 -3.63248,-1.57998 -0.76202,-0.74945 -1.14583,-1.76743 -1.14583,-3.05372 0,-1.6306 0.56888,-2.88654 1.70711,-3.76776 1.13787,-0.89127 2.76326,-1.33691 4.8719,-1.33691 z m 58.09255,0 c 2.23392,0 3.98936,0.73422 5.27336,2.20296 1.29443,1.46855 1.94484,3.47394 1.94484,6.01617 v 1.36736 h -12.47981 v 0.0911 c 0,1.85351 0.49355,3.28661 1.48492,4.29942 1.0021,1.01293 2.41241,1.5193 4.22884,1.5193 0.91857,0 1.87813,-0.1417 2.88029,-0.4257 1.0021,-0.28341 2.07368,-0.7137 3.21149,-1.2914 v 2.78024 c -1.09605,0.4357 -2.15733,0.75968 -3.1804,0.9723 -1.01252,0.22285 -1.99269,0.33456 -2.9426,0.33456 -2.72451,0 -4.85351,-0.79002 -6.38803,-2.37 -1.53452,-1.59015 -2.30346,-3.77788 -2.30346,-6.56317 0,-2.71433 0.75352,-4.88183 2.2567,-6.50238 1.50318,-1.62055 3.50858,-2.4308 6.01386,-2.4308 z m 69.31747,0 c -1.20049,0 -2.23724,0.25284 -3.11411,0.75968 -0.87688,0.49626 -1.56977,1.2306 -2.08134,2.2029 v -2.5524 h -2.88408 v 17.01565 h 2.88408 v -9.61688 c 0,-1.73192 0.35917,-3.05877 1.07966,-3.98044 0.73068,-0.93179 1.76749,-1.39771 3.11411,-1.39771 1.17963,0 2.04644,0.35926 2.59965,1.07866 0.55321,0.71882 0.83023,1.8434 0.83023,3.37276 v 10.54361 h 2.89584 v -10.54361 c 0,-2.30926 -0.44172,-4.03107 -1.32908,-5.16547 -0.87682,-1.14452 -2.20994,-1.71675 -3.99496,-1.71675 z m 18.13517,0 c -2.10857,0 -3.73408,0.44511 -4.87189,1.33691 -1.13781,0.88122 -1.70711,2.13716 -1.70711,3.76776 0,1.28629 0.38387,2.30427 1.14589,3.05372 0.76201,0.73939 1.9728,1.26599 3.63248,1.58004 l 1.0796,0.21226 0.12474,0.0294 c 2.55753,0.49626 3.83508,1.39265 3.83508,2.68898 7e-5,0.90145 -0.34891,1.60533 -1.04838,2.11182 -0.6994,0.49626 -1.68463,0.74439 -2.95821,0.74439 -0.87687,0 -1.80545,-0.13171 -2.7867,-0.39454 -0.98125,-0.27341 -2.01167,-0.67842 -3.08687,-1.21549 v 2.88661 c 1.10647,0.35456 2.13696,0.61809 3.08687,0.79002 0.94991,0.18228 1.85788,0.27342 2.72433,0.27342 2.19216,0 3.90517,-0.47098 5.13699,-1.41294 1.23176,-0.95201 1.8474,-2.26875 1.8474,-3.95004 0,-1.26605 -0.37363,-2.29409 -1.11467,-3.08411 -0.73074,-0.78996 -1.80877,-1.31662 -3.23885,-1.57998 l -1.16143,-0.21227 c -1.91044,-0.35396 -3.10568,-0.71881 -3.58578,-1.09389 -0.48029,-0.37455 -0.71718,-0.94189 -0.71718,-1.70157 0,-0.84059 0.31818,-1.46351 0.95491,-1.86869 0.64722,-0.41512 1.6222,-0.6225 2.92705,-0.6225 0.86645,0 1.71772,0.11642 2.55289,0.34926 0.83505,0.23285 1.66583,0.58211 2.49046,1.04827 v -2.73467 c -0.83518,-0.33457 -1.6865,-0.58211 -2.55295,-0.74445 -0.86639,-0.1717 -1.76924,-0.25813 -2.70873,-0.25813 z m 42.93518,0 c -1.36753,0 -2.55241,0.32398 -3.55457,0.9723 -0.99173,0.63796 -1.7297,1.55981 -2.20993,2.76507 v -3.32719 h -2.89584 v 17.01565 h 2.89584 v -8.46219 c 0,-2.06619 0.47667,-3.64629 1.42658,-4.74012 0.94986,-1.09384 2.32028,-1.64078 4.11573,-1.64078 0.76207,0 1.46395,0.10642 2.1008,0.31869 0.63679,0.21226 1.26267,0.55212 1.87861,1.01786 v -2.85615 c -0.56345,-0.36455 -1.1536,-0.63279 -1.76948,-0.80525 -0.61594,-0.17169 -1.27792,-0.25812 -1.98774,-0.25812 z m 31.62842,0 c -0.65771,0 -1.24755,0.16229 -1.76954,0.48568 -0.51163,0.31399 -0.9378,0.77485 -1.28226,1.38253 v -1.4585 h -2.61526 v 17.01565 h 2.61526 v -9.73842 c 0,-2.31944 0.14402,-3.78799 0.4369,-4.40579 0.30312,-0.62768 0.83596,-0.94196 1.59797,-0.94196 0.77244,0 1.30576,0.28341 1.59803,0.85076 0.30312,0.56741 0.45197,2.06613 0.45197,4.49699 v 9.73842 h 2.63087 v -9.73842 c 0,-2.31944 0.15306,-3.78799 0.45618,-4.40579 0.31336,-0.62768 0.88368,-0.94196 1.7188,-0.94196 0.73074,0 1.23302,0.294 1.50444,0.88116 0.28203,0.57682 0.42485,2.06619 0.42485,4.46659 v 9.73842 h 2.63081 v -9.85996 c 0,-2.92712 -0.29288,-4.91728 -0.87694,-5.97066 -0.57369,-1.06349 -1.5685,-1.59521 -2.97773,-1.59521 -0.77244,0 -1.43448,0.17699 -1.98769,0.53213 -0.54296,0.34456 -0.98975,0.8811 -1.34469,1.61032 -0.29227,-0.71881 -0.707,-1.25594 -1.23947,-1.61032 -0.52187,-0.35397 -1.17873,-0.53213 -1.97208,-0.53213 z m 22.11061,0 c -2.50534,0 -4.51069,0.81031 -6.01387,2.4308 -1.50324,1.62055 -2.25663,3.78805 -2.25663,6.50238 0,2.78529 0.76888,4.97302 2.3034,6.56317 1.53451,1.57998 3.66346,2.37 6.38803,2.37 0.94991,0 1.93008,-0.11171 2.94266,-0.33456 1.02301,-0.21226 2.08429,-0.53683 3.1804,-0.97241 v -2.78019 c -1.13787,0.578 -2.20945,1.00781 -3.21161,1.29134 -1.00216,0.28341 -1.96166,0.42571 -2.8803,0.42571 -1.8163,0 -3.22661,-0.50626 -4.22877,-1.51925 -0.99168,-1.01286 -1.48498,-2.44597 -1.48498,-4.29948 v -0.0911 h 12.47993 v -1.36736 c 0,-2.54222 -0.64661,-4.54761 -1.94104,-6.01617 -1.28395,-1.46868 -3.04336,-2.20296 -5.27722,-2.20296 z m 20.22814,0 c -1.20054,0 -2.23729,0.25284 -3.11417,0.75968 -0.87681,0.49626 -1.57368,1.2306 -2.08513,2.2029 v -2.5524 h -2.88029 v 17.01565 h 2.88029 v -9.61688 c 0,-1.73192 0.36338,-3.05877 1.08345,-3.98044 0.7308,-0.93179 1.76755,-1.39771 3.11411,-1.39771 1.17957,0 2.04639,0.35926 2.59971,1.07866 0.55321,0.71882 0.83011,1.8434 0.83011,3.37276 v 10.54361 h 2.89584 v -10.54361 c 0,-2.30926 -0.44172,-4.03107 -1.32908,-5.16547 -0.87681,-1.14452 -2.20987,-1.71675 -3.99484,-1.71675 z m 37.42377,0 c -2.10863,0 -3.73016,0.44511 -4.86797,1.33691 -1.13787,0.88122 -1.70717,2.13716 -1.70717,3.76776 0,1.28629 0.38025,2.30427 1.14197,3.05372 0.76207,0.73939 1.9728,1.26605 3.63248,1.58004 l 1.07966,0.21226 0.12474,0.0294 c 2.55747,0.49626 3.839,1.39265 3.839,2.68898 0,0.90145 -0.35313,1.60533 -1.0523,2.11182 -0.6994,0.49626 -1.68469,0.74439 -2.95821,0.74439 -0.87687,0 -1.80551,-0.13171 -2.7867,-0.39454 -0.98125,-0.27341 -2.00781,-0.67842 -3.08301,-1.21549 v 2.88661 c 1.10653,0.35456 2.13304,0.61809 3.08295,0.79002 0.94997,0.18228 1.85794,0.27342 2.72433,0.27342 2.19222,0 3.90511,-0.47098 5.13693,-1.41288 1.23176,-0.95207 1.8474,-2.26875 1.8474,-3.9501 0,-1.266 -0.37001,-2.29397 -1.11075,-3.08405 -0.7308,-0.79002 -1.81263,-1.31668 -3.24271,-1.57998 l -1.15758,-0.21227 c -1.91031,-0.35397 -3.10549,-0.71881 -3.58566,-1.09389 -0.48029,-0.37455 -0.72103,-0.94195 -0.72103,-1.70158 0,-0.84064 0.31818,-1.46356 0.95485,-1.86868 0.64722,-0.41512 1.6222,-0.6225 2.92705,-0.6225 0.86639,0 1.71778,0.11701 2.55289,0.34926 0.83499,0.23285 1.66583,0.58211 2.49052,1.04833 v -2.73467 c -0.83518,-0.33457 -1.6865,-0.58211 -2.55289,-0.74446 -0.86639,-0.17169 -1.7693,-0.25812 -2.70873,-0.25812 z m -407.665145,0.0588 v 2.76501 l -13.3061306,4.8616 13.3061306,4.81603 v 2.78024 l -16.5489606,-6.3505 v -2.52194 z m 437.648595,0 v 2.76501 l 13.30998,4.8616 -13.30998,4.81603 v 2.78024 l 16.55281,-6.3505 v -2.52194 z m -412.985095,0.34927 h 7.37416 v 14.84315 h 5.71767 v 2.1725 h -14.31172 v -2.1725 h 5.71376 v -12.6706 h -4.49387 z m 96.455925,0 h 7.3741 v 14.84315 h 5.71382 v 2.1725 h -14.31172 v -2.1725 h 5.71767 v -12.6706 h -4.49387 z m 87.67091,0 v 2.17255 h 4.49388 v 12.6706 h -5.71382 v 2.1725 h 14.31172 v -2.1725 h -5.71767 v -14.84315 z m 95.50108,0.0294 v 10.54362 c 0,2.30926 0.4369,4.03618 1.31342,5.1807 0.87687,1.13434 2.21505,1.70152 4.01051,1.70152 1.17963,0 2.20613,-0.25284 3.08295,-0.75968 0.88736,-0.50626 1.58538,-1.25077 2.09694,-2.23324 v 2.55234 h 2.89976 v -16.98514 h -2.89976 v 9.61677 c 0,1.73198 -0.35976,3.06383 -1.07966,3.99567 -0.72025,0.92167 -1.75706,1.38248 -3.1141,1.38248 -1.16909,0 -2.03596,-0.35926 -2.59965,-1.07867 -0.55321,-0.71881 -0.83018,-1.84334 -0.83018,-3.37275 v -10.5435 z m -255.046195,1.92949 c -1.40923,0 -2.48214,0.54682 -3.2233,1.64083 -0.74111,1.08378 -1.11076,2.67388 -1.11076,4.7704 0,2.09665 0.37001,3.6968 1.11076,4.8008 0.75165,1.0939 1.8348,1.64084 3.25445,1.64084 1.32571,0 2.34065,-0.55212 3.04011,-1.65606 0.70983,-1.10389 1.06399,-2.6991 1.06399,-4.78558 0,-2.09652 -0.35434,-3.68662 -1.06399,-4.7704 -0.6994,-1.09383 -1.72464,-1.64083 -3.07126,-1.64083 z m 96.331185,0 c -1.38838,0 -2.43935,0.55212 -3.14918,1.656 -0.70989,1.10401 -1.06405,2.73973 -1.06405,4.90717 0,2.1675 0.35434,3.80322 1.06405,4.90717 0.70983,1.10406 1.7608,1.65601 3.14918,1.65601 1.38832,0 2.44062,-0.55683 3.16087,-1.67118 0.73068,-1.11412 1.09912,-2.74473 1.09912,-4.892 0,-2.15733 -0.3688,-3.78793 -1.09912,-4.89194 -0.72019,-1.11412 -1.77255,-1.67123 -3.16087,-1.67123 z m 20.18138,0 c -1.38838,0 -2.52818,0.4451 -3.4259,1.33696 -0.89779,0.89127 -1.43099,2.12693 -1.59798,3.70703 l 9.4866,-0.0118 c -0.0422,-1.64084 -0.44233,-2.88667 -1.20434,-3.73749 -0.75165,-0.86087 -1.83872,-1.29133 -3.25838,-1.29133 z m 184.12685,0 c 1.41965,0 2.50672,0.43099 3.25831,1.29139 0.76208,0.85082 1.16258,2.09659 1.20434,3.73737 l -9.48659,0.0118 c 0.16693,-1.57998 0.70031,-2.8157 1.59797,-3.70697 0.89779,-0.89127 2.03759,-1.33691 3.42597,-1.33691 z m -164.039,11.38302 v 7.34932 h 7.57291 v -7.34932 z" />
</svg>
